<svg width="170" height="141" viewBox="0 0 170 141" fill="none" xmlns="http://www.w3.org/2000/svg">
<rect x="22.5278" y="49.1105" width="113.2" height="15.7953" rx="7.89764" transform="rotate(-16.9867 22.5278 49.1105)" fill="#1AABA8" fill-opacity="0.1"/>
<rect x="25.4629" y="81.2456" width="126.362" height="15.7953" rx="7.89764" transform="rotate(-16.9867 25.4629 81.2456)" fill="#1AABA8" fill-opacity="0.1"/>
<rect x="43.5039" y="108.766" width="106.618" height="15.7953" rx="7.89764" transform="rotate(-16.9867 43.5039 108.766)" fill="#1AABA8" fill-opacity="0.1"/>
<circle cx="21.5092" cy="31.0205" r="2.4814" stroke="#624098"/>
<circle cx="1.4907" cy="73.0444" r="0.990702" stroke="#624098"/>
<circle cx="91.2256" cy="138.764" r="0.990702" stroke="#624098"/>
<circle cx="135.637" cy="105.118" r="0.990702" stroke="#624098"/>
<circle cx="163.019" cy="70.5298" r="0.990702" stroke="#624098"/>
<circle cx="165.316" cy="29.8232" r="4.25277" fill="#624098"/>
<circle cx="84.2245" cy="5.21746" r="4.71746" stroke="#624098"/>
<circle cx="22.2546" cy="114.766" r="3.72676" fill="#624098"/>
<path d="M86.9491 28.4242C64.2565 28.4242 45.7646 46.916 45.7646 69.6087C45.7646 92.3013 64.2565 110.793 86.9491 110.793C109.642 110.793 128.134 92.3013 128.134 69.6087C128.134 46.916 109.642 28.4242 86.9491 28.4242ZM106.635 60.1362L83.2837 83.4878C82.7071 84.0644 81.9246 84.3939 81.1009 84.3939C80.2772 84.3939 79.4947 84.0644 78.9181 83.4878L67.2629 71.8326C66.0686 70.6383 66.0686 68.6614 67.2629 67.4671C68.4573 66.2727 70.4341 66.2727 71.6285 67.4671L81.1009 76.9395L102.27 55.7707C103.464 54.5763 105.441 54.5763 106.635 55.7707C107.83 56.965 107.83 58.9007 106.635 60.1362Z" fill="#624098"/>
</svg>
